<?xml version="1.0" encoding="UTF-8"?><svg id="Layer_2" xmlns="http://www.w3.org/2000/svg" xmlns:xlink="http://www.w3.org/1999/xlink" viewBox="0 0 385.87 339"><defs><style>.cls-1{fill:url(#linear-gradient-3);}.cls-2{fill:url(#linear-gradient-2);}.cls-3{fill:url(#linear-gradient);}</style><linearGradient id="linear-gradient" x1=".1" y1="145.5" x2="278.64" y2="145.5" gradientUnits="userSpaceOnUse"><stop offset="0" stop-color="#fff14c"/><stop offset="1" stop-color="#ff569d"/></linearGradient><linearGradient id="linear-gradient-2" x1="235.28" y1="411.28" x2="95.92" y2="169.91" gradientUnits="userSpaceOnUse"><stop offset="0" stop-color="#f08aff"/><stop offset="1" stop-color="#5415ff"/></linearGradient><linearGradient id="linear-gradient-3" x1="349.77" y1="72.37" x2="210.48" y2="313.61" gradientUnits="userSpaceOnUse"><stop offset="0" stop-color="#fff14c"/><stop offset="1" stop-color="#00d08a"/></linearGradient></defs><g id="Layer_1-2"><path class="cls-3" d="M.1,291C27.32,243.84,129.02,67.7,159.45,14.99c5.36-9.28,15.26-14.99,25.98-14.99h33.41c-32.88,56.95-126.96,219.91-140.88,244.01-.77,1.33.2,2.99,1.74,2.99h173.54l25.4,44H.1Z"/><path class="cls-2" d="M16.69,323.97L0,295h282.12c1.54,0,2.5-1.67,1.73-3l-86.84-150.43,25.37-43.94,42.16,73.03c33.95,58.81,73.13,126.68,97.19,168.34H42.69c-10.73,0-20.64-5.73-26-15.03Z"/><path class="cls-1" d="M220.64,92.63c-10.85,18.78-69.6,120.54-86.82,150.37h-50.73C119.17,180.52,187.08,62.88,222.37,1.76c24.91,43.15,72.98,126.41,113.71,196.97l45.76,79.27c5.35,9.27,5.36,20.69.01,29.97l-16.7,29c-21.16-36.64-126.27-218.71-141.06-244.33-.77-1.33-2.69-1.34-3.46,0Z"/></g></svg>