<svg width="18" height="16" viewBox="0 0 18 16" fill="none" xmlns="http://www.w3.org/2000/svg">
<path d="M16.8372 12.6589L10.1053 1L8.78122 1.00081C8.3478 1.00081 7.94717 1.23229 7.73066 1.60783L1 13.2659L1.66246 14.412C1.87937 14.7871 2.28001 15.0186 2.71342 15.0186L16.176 15.0198L16.8376 13.8733C17.0541 13.4978 17.0541 13.0352 16.8376 12.6597L16.8372 12.6589Z" stroke="black" stroke-miterlimit="10"/>
<path d="M6.05688 11.5149V11.5141L10.0341 4.62679C10.0653 4.57297 10.143 4.57297 10.1741 4.62679L16.176 15.0194" stroke="black" stroke-miterlimit="10"/>
<path d="M1 13.2658H13.0012C13.0636 13.2658 13.1024 13.1983 13.0712 13.1444L9.08918 6.25635" stroke="black" stroke-miterlimit="10"/>
<path d="M12.1295 11.514H4.17425C4.11193 11.514 4.07308 11.4465 4.10424 11.3926L10.1053 1" stroke="black" stroke-miterlimit="10"/>
</svg>
